<?xml version="1.0" encoding="UTF-8"?>
<svg id="Layer_1" data-name="Layer 1" xmlns="http://www.w3.org/2000/svg" viewBox="0 0 48 48">
  <path d="m13.05,10.5v28.5V10.5Zm8.98,31.5h-8.98c-.8,0-1.5-.3-2.1-.9s-.9-1.3-.9-2.1V10.5h-2.15v-3h9.45v-1.5h12.4v1.5h9.45v3h-2.15v11.1h-3v-11.1H13.05v28.5h8.98v3Zm-4.03-7.3h3V14.75h-3v19.95Zm11.15-13.1v-6.85h-3v6.85"/>
  <path d="m27.43,42c-.8,0-1.5-.3-2.1-.9s-.9-1.3-.9-2.1v-12c0-.8.3-1.5.9-2.1s1.3-.9,2.1-.9h12c.8,0,1.5.3,2.1.9s.9,1.3.9,2.1v12c0,.8-.3,1.5-.9,2.1s-1.3.9-2.1.9h-12Zm0-3h12v-12h-12v12Zm1.4-2.3h9.24l-2.78-3.7-2.49,3.23-1.76-2.4-2.21,2.87Zm-1.4,2.3v-12,12Z"/>
</svg>