<?xml version="1.0" encoding="UTF-8"?>
<!DOCTYPE svg PUBLIC "-//W3C//DTD SVG 1.1//EN" "http://www.w3.org/Graphics/SVG/1.1/DTD/svg11.dtd">
<!-- Creator: CorelDRAW (Evaluation Version) -->
<svg xmlns="http://www.w3.org/2000/svg" xml:space="preserve" width="2.60417in" height="2.60417in" version="1.1" style="shape-rendering:geometricPrecision; text-rendering:geometricPrecision; image-rendering:optimizeQuality; fill-rule:evenodd; clip-rule:evenodd"
viewBox="0 0 2604.17 2604.17"
 xmlns:xlink="http://www.w3.org/1999/xlink"
 xmlns:xodm="http://www.corel.com/coreldraw/odm/2003">
 <defs>
  <style type="text/css">
   <![CDATA[
    .fil0 {fill:black}
   ]]>
  </style>
 </defs>
 <g id="Layer_x0020_1">
  <metadata id="CorelCorpID_0Corel-Layer"/>
  <g id="_1945274127328">
   <path class="fil0" d="M1567.28 1459.73l-471.43 0c-92.84,0 -157.15,-58.69 -157.15,-141.03 0,-69.93 62.57,-137 132.97,-137 26.8,0 34.88,4.03 60.44,4.03 8.6,-12.85 11.95,-13.87 12.24,-36.11 0.94,-71.69 34.17,-123.54 94.11,-159.74 51.19,-30.93 109.24,-29.84 164.2,-10.23 49.9,17.81 81.16,56.83 102.91,102.59 13.44,28.27 13.36,51.55 13.36,91.41l12.95 11.22c56.69,-4.06 102.85,-12.42 153.41,40 74.91,77.66 38.8,234.86 -118.01,234.86zm-467.41 -322.35c-59.55,0 -84.19,6.3 -128.94,36.26 -43.38,-29.05 -56.41,-85.4 -56.41,-141.03 0,-78.01 79.13,-157.15 157.15,-157.15 64.85,0 118.39,16.65 153.11,68.5 -14.15,21.13 -38.54,16.33 -81.83,75.31 -19.65,26.77 -42.13,75.12 -43.08,118.09zm-233.7 -92.68c0,36 9.08,67.81 20.12,92.7 16.97,38.29 36.7,51.02 48.38,68.47 -7.14,13.5 -3.01,11.37 -16.12,20.15 -13.48,-50.5 -88.65,34.43 -88.65,56.41 0,9.83 9.35,20.15 24.18,20.15 14.28,0 39.8,-35.9 52.38,-44.32 -16.38,70.29 -11.35,136.04 43.15,190.56 22,22.01 71.7,51.21 114,51.21l535.91 0c80.71,0 165.2,-84.49 165.2,-165.2 0,-68.31 -10.64,-104.69 -61.38,-152.18 -31.8,-29.78 -79.07,-45.26 -140.09,-45.26 -9.7,-116.54 -109.69,-213.56 -217.59,-213.56l-76.56 4.03c-127.45,-190.33 -402.94,-86.77 -402.94,116.85z"/>
   <path class="fil0" d="M833.94 794.88c-7.07,29.54 -7.61,26.69 23.17,57.43 5.67,5.66 31.25,31.22 37.28,31.22 70.33,0 -14.13,-92.68 -40.29,-92.68 -6.35,0 -15.27,2.13 -20.15,4.03z"/>
   <path class="fil0" d="M1248.96 859.35c0,6.78 1.6,8.41 5.76,14.39 0.67,0.96 3,3.49 3.76,4.3l4.33 3.73c0.43,0.38 1.54,1.13 2.27,1.76 31.29,-2.61 76.56,-54.83 76.56,-68.5 0,-10.88 -1.93,-11.11 -4.03,-20.15 -29.31,-7.02 -26.68,-7.74 -57.42,23.17 -9.53,9.58 -31.22,25.89 -31.22,41.31z"/>
   <path class="fil0" d="M733.2 1040.67l4.03 24.18c29.3,6.83 71.43,6.83 100.73,0 25.4,-52.93 -31.58,-40.29 -88.65,-40.29 -9.43,0 -16.12,6.69 -16.12,16.11z"/>
   <path class="fil0" d="M1067.64 698.18c-7.12,30.55 -4.03,52.16 -4.03,88.65 0,22.48 44.32,22.48 44.32,0 0,-36.48 3.09,-58.09 -4.03,-88.65 -10.73,-2.57 -15.88,-7.91 -36.26,0z"/>
  </g>
 </g>
</svg>
