<?xml version="1.0" encoding="UTF-8"?>
<!DOCTYPE svg PUBLIC "-//W3C//DTD SVG 1.1//EN" "http://www.w3.org/Graphics/SVG/1.1/DTD/svg11.dtd">
<!-- Creator: CorelDRAW (Evaluation Version) -->
<svg xmlns="http://www.w3.org/2000/svg" xml:space="preserve" width="2.60417in" height="2.60417in" version="1.1" style="shape-rendering:geometricPrecision; text-rendering:geometricPrecision; image-rendering:optimizeQuality; fill-rule:evenodd; clip-rule:evenodd"
viewBox="0 0 2604.17 2604.17"
 xmlns:xlink="http://www.w3.org/1999/xlink"
 xmlns:xodm="http://www.corel.com/coreldraw/odm/2003">
 <defs>
  <style type="text/css">
   <![CDATA[
    .fil0 {fill:black}
   ]]>
  </style>
 </defs>
 <g id="Layer_x0020_1">
  <metadata id="CorelCorpID_0Corel-Layer"/>
  <path class="fil0" d="M1490.44 1390.4l-429.13 0c-32.33,0 -57.48,-13.68 -75.25,-30.27 -82.66,-77.18 -17.93,-201.88 64.7,-201.88l56.28 3.52c26.42,-30.49 -4.65,-18.19 21.52,-87.53 23.58,-62.5 92.72,-105.02 171.4,-94.88 71.62,9.23 124.8,69.79 133.37,137.52 1.91,15.08 -2.83,32.58 5.59,40.38 7.67,7.1 28.91,0.99 55.05,0.99 58.55,0 109.04,52 109.04,119.59 0,59.11 -53.83,112.56 -112.56,112.56zm-576.86 -119.59c0,34.19 12.74,61.97 24.62,84.42 -32.93,0 -86.41,5.57 -112.3,-3.78 -88.13,-31.84 -61.18,-162.53 32.59,-155.25 60.3,4.68 17.57,-13 45.61,-68.54 9.3,-18.41 27.21,-41.92 48.17,-46.8 29.83,56.38 15.11,24.59 38.69,59.8 -4.97,6.78 -77.38,47.12 -77.38,130.15zm63.31 -242.7c0,-95.89 94.74,-151.63 175.5,-119.22 21.98,8.82 45.68,28.13 56.65,48.87 -54.52,12.7 -107.61,75.43 -120.46,132.8 -9.65,43.04 5.01,33.5 -23.51,32.74 -18.28,-0.48 -43.24,21.8 -75.37,-44.69 -6.11,-12.64 -12.81,-33.5 -12.81,-50.5zm-31.66 21.1c-17.33,4.04 -19.6,8.78 -31.24,18.01 -28.02,22.24 -49.66,56.13 -49.66,98.07l-24.63 0c-46.79,0 -98.49,51.7 -98.49,98.49 0,45.35 4.13,62.54 35.96,94.19 55.44,55.09 152.43,11.56 193.25,31.87 9.32,4.64 36.72,32.23 80.33,32.23l446.72 0c68.1,0 137.18,-69.08 137.18,-137.18 0,-52.1 -11.71,-95.35 -53.17,-126.22 -16.35,-12.17 -27.8,-20.04 -50,-27.39 -16.06,-5.31 -49.57,-12.41 -65.67,-4.68 0,-29.1 -8.33,-54.08 -17.57,-73.88 -31.52,-67.59 -103.17,-109.02 -179.41,-109.02 -12.13,0 -13.62,2.6 -24.62,3.52 -37.71,-56.32 -76.35,-80.9 -147.73,-80.9 -68.06,0 -124.91,49.44 -144.74,108.51 -13.54,40.33 -7.09,47.99 -6.51,74.39z"/>
  <path class="fil0" d="M843.23 1021.07c6.33,27.18 13.44,21.1 63.31,21.1 9.5,0 9.7,-1.68 17.59,-3.52 8.82,-37.87 -16.93,-31.66 -56.28,-31.66 -11.33,0 -15.33,3.48 -21.52,10.14l-3.1 3.93z"/>
  <path class="fil0" d="M1085.94 788.92c0,29.87 -2.3,31.31 3.52,56.28 22.56,5.4 6.8,4.97 28.14,0 3.5,-15.04 12.1,-77.38 -10.56,-77.38 -11.57,0 -21.1,-0.14 -21.1,21.11z"/>
  <path class="fil0" d="M917.1 852.23c0,28.95 66.83,79.61 66.83,35.18 0,-6.95 -36.69,-49.24 -52.76,-49.24 -8.24,0 -14.07,5.83 -14.07,14.07z"/>
  <path class="fil0" d="M1226.63 901.47c26.82,6.25 19.55,6.72 44.85,-18.46 11.85,-11.79 14.02,-12.22 21.98,-27.27 -18.22,-34.44 -30.75,-12.83 -51.92,7.88 -29.52,28.87 -14.91,23.87 -14.91,37.85z"/>
 </g>
</svg>
