<?xml version="1.0" encoding="UTF-8"?>
<!DOCTYPE svg PUBLIC "-//W3C//DTD SVG 1.1//EN" "http://www.w3.org/Graphics/SVG/1.1/DTD/svg11.dtd">
<!-- Creator: CorelDRAW (Evaluation Version) -->
<svg xmlns="http://www.w3.org/2000/svg" xml:space="preserve" width="2.60417in" height="2.60417in" version="1.1" style="shape-rendering:geometricPrecision; text-rendering:geometricPrecision; image-rendering:optimizeQuality; fill-rule:evenodd; clip-rule:evenodd"
viewBox="0 0 2604.17 2604.17"
 xmlns:xlink="http://www.w3.org/1999/xlink"
 xmlns:xodm="http://www.corel.com/coreldraw/odm/2003">
 <defs>
  <style type="text/css">
   <![CDATA[
    .fil0 {fill:black}
   ]]>
  </style>
 </defs>
 <g id="Layer_x0020_1">
  <metadata id="CorelCorpID_0Corel-Layer"/>
  <g id="_1945238877536">
   <path class="fil0" d="M1115.67 1015.41c35.29,0 52.9,5.8 77.81,0 7.35,-31.56 4.58,-63.22 14.79,-95.8 16.06,-51.25 58.73,-99.33 106.58,-122.76 117.61,-57.61 253.98,4.81 292.87,119.67 10.82,31.96 8.01,65.53 15.78,98.89 48.85,11.38 69.26,-16.62 135.21,16.32 145.93,72.87 86.01,290.84 -61.5,290.84l-577.46 0c-91.95,0 -176.92,-102.25 -134.69,-212.5 6.7,-17.48 16.07,-31.4 29.14,-44.58 27.51,-27.71 57.11,-50.08 101.45,-50.08zm40.95 -57.34l0 12.29 -32.76 0c-99.89,0 -192.48,88.64 -192.48,188.39l0 20.48c0,99.19 92.71,188.39 192.48,188.39l569.27 0c99.78,0 192.48,-89.19 192.48,-188.39l0 -20.48c0,-99.75 -92.59,-188.39 -192.48,-188.39l-32.76 0c0,-91.45 -63.19,-177.69 -139.23,-212.98 -127.71,-59.26 -277.78,-10.27 -338.67,111.86 -10.81,21.69 -25.84,58.72 -25.84,88.83z"/>
   <path class="fil0" d="M1406.45 1621.53c-13.26,-8.88 -19.1,-16.31 -32.76,4.09 7.17,26.83 9.22,-2.26 16.38,24.57 -14.16,3.78 -12.6,2.22 -16.38,16.38 14.35,21.43 13.75,9.17 32.76,4.09 0,16.64 -1.37,13.19 4.09,24.57l20.48 0c2.24,-9.64 3.81,-12.09 4.09,-24.57 7.44,3.94 19.65,14.71 26.94,2.04 8.94,-15.52 -4.33,-18.11 -10.56,-26.61 12.91,-17.63 21.47,-5.98 8.19,-32.76 -13.91,1.16 -14.99,3.12 -24.57,8.19 -0.3,-13.47 -0.6,-24.78 -13.11,-26.65 -14.48,-2.17 -15.56,9.58 -15.56,26.65z"/>
   <path class="fil0" d="M1566.17 1621.53c-34.81,-23.31 -41.76,12.61 -12.28,20.47 -13.61,18.57 -26.87,7.45 -12.29,36.86 13.91,-1.16 14.99,-3.12 24.57,-8.19 0.28,12.48 1.85,14.93 4.1,24.57l20.48 0c5.46,-11.39 4.09,-7.93 4.09,-24.57 18.82,9.96 20.25,14.6 32.76,-4.09 -3.78,-14.16 -2.22,-12.6 -16.38,-16.38l0 -8.19c14.16,-3.78 12.6,-2.22 16.38,-16.38 -12.52,-18.69 -13.94,-14.06 -32.76,-4.09 0,-39.15 -27.86,-36.13 -28.67,0z"/>
   <path class="fil0" d="M1160.72 1453.61c-18.82,-9.96 -20.25,-14.59 -32.77,4.1 3.78,14.16 2.22,12.6 16.39,16.38 -7.67,28.7 -21.61,-3.17 -12.29,36.86 16.76,-0.38 17.81,-2.45 28.67,-8.2 0,22.42 -2.35,18.87 12.28,28.67 15.88,-4.24 15.96,-5.53 16.38,-24.57 48.64,11.64 31.23,-19.52 12.29,-24.58 9.27,-12.66 10.46,-5.51 20.48,-20.48 -12.5,-23.61 -10.54,-13.37 -32.76,-8.19 -0.67,-30.33 -28.67,-40.02 -28.67,0z"/>
   <path class="fil0" d="M1320.44 1453.61c-16.45,-8.7 -28.67,-15.38 -28.67,8.19 0,14.18 6.96,7.61 16.38,20.48 -16.72,3.9 -16.58,3.75 -20.48,20.48 17.79,11.91 14.98,11.91 32.76,0 0.41,18.43 1.46,20.74 12.29,28.67 17.7,-4.73 16.38,-7.49 16.38,-28.67 12.02,8.06 8.15,8.2 28.67,8.2 6.14,-26.35 -1.29,-19.65 -16.38,-32.77 13.33,-3.56 16.92,-7.14 20.48,-20.48 -17.89,-21.42 -5.86,-10.37 -32.76,-4.1 0,-40.02 -27.99,-30.33 -28.67,0z"/>
   <path class="fil0" d="M1643.98 1453.61c-19.01,-5.07 -18.41,-17.33 -32.76,4.1 3.78,14.16 2.22,12.6 16.38,16.38 -7.67,28.7 -21.61,-3.17 -12.29,36.86 16.76,-0.38 17.81,-2.45 28.67,-8.2 0,21.18 -1.33,23.94 16.38,28.67 9.85,-7.22 10.92,-8.19 12.29,-24.57 45.56,10.9 31.45,-19.46 12.29,-24.58 9.27,-12.66 10.46,-5.51 20.48,-20.48 -12.5,-23.61 -10.54,-13.37 -32.76,-8.19 -0.68,-30.33 -28.67,-40.02 -28.67,0z"/>
   <path class="fil0" d="M1246.73 1621.53c-41.16,-21.78 -42.69,13.45 -16.38,20.47 -7.19,10.73 -2.07,8.47 -16.38,12.29 0.79,35.56 13.35,20.91 32.76,16.38 0,14.24 -2.51,24.57 12.28,24.57 14.79,0 12.29,-10.33 12.29,-24.57 4.28,1.14 32.76,20.91 32.76,-4.09 0,-12.44 -7.11,-13.91 -16.38,-16.38l0 -8.19c24.69,-6.59 20.17,-28.67 4.09,-28.67 -13.31,0 -3.09,3.55 -20.48,8.19 0,-22.42 2.35,-18.87 -12.29,-28.67 -14.63,9.79 -12.28,6.25 -12.28,28.67z"/>
   <path class="fil0" d="M1484.26 1453.61c-15.14,-3.52 -21.4,-14.61 -29.8,-0.97 -8.28,13.46 5.76,18.22 13.41,29.64 -27.02,7.21 -15.58,28.67 -8.19,28.67 12.2,0 29.97,-12.96 49.15,-8.2 0.17,0.05 32.76,21.33 32.76,-4.09 0,-12.81 -7.35,-11.6 -16.38,-16.38 9.43,-12.86 16.38,-6.3 16.38,-20.48 0,-26.41 -23.28,-10.45 -32.76,-4.09 0,-15.1 3.62,-28.67 -12.29,-28.67 -14.79,0 -12.28,10.33 -12.28,24.57z"/>
  </g>
 </g>
</svg>
