<?xml version="1.0" encoding="UTF-8"?>
<!DOCTYPE svg PUBLIC "-//W3C//DTD SVG 1.1//EN" "http://www.w3.org/Graphics/SVG/1.1/DTD/svg11.dtd">
<!-- Creator: CorelDRAW (Evaluation Version) -->
<svg xmlns="http://www.w3.org/2000/svg" xml:space="preserve" width="2.60417in" height="2.60417in" version="1.1" style="shape-rendering:geometricPrecision; text-rendering:geometricPrecision; image-rendering:optimizeQuality; fill-rule:evenodd; clip-rule:evenodd"
viewBox="0 0 2604.17 2604.17"
 xmlns:xlink="http://www.w3.org/1999/xlink"
 xmlns:xodm="http://www.corel.com/coreldraw/odm/2003">
 <defs>
  <style type="text/css">
   <![CDATA[
    .fil0 {fill:black}
   ]]>
  </style>
 </defs>
 <g id="Layer_x0020_1">
  <metadata id="CorelCorpID_0Corel-Layer"/>
  <g id="_1945275381600">
   <path class="fil0" d="M929.41 1204.11c0,-80.69 13.78,-130.52 63.71,-192.22 19.19,-23.72 5.52,-11.18 30.24,-30.69 8.01,-6.32 8.51,-7.71 18.09,-14.41 113.89,-79.59 263.78,-63.45 354.22,26.99 39.31,39.31 78.1,118.12 78.1,177.83 0,53.25 -1.18,83.69 -25.67,132.76l-38.04 59.46c-25.31,31.28 -51.85,50.45 -89.26,69.17 -71.66,35.87 -163.96,37.19 -235.73,1.37l-59.46 -38.04c-23.72,-19.19 -11.18,-5.52 -30.69,-30.24 -19.04,-24.12 -22.92,-27.93 -38.48,-59.02 -13.41,-26.81 -27.04,-64.89 -27.04,-102.96zm-44.69 -36.56c0,100.89 21.33,173.69 92.41,244.77 95.07,95.07 238.34,119.94 361.3,62.69 14.61,-6.8 34.15,-18.79 46,-27.12 16.76,-11.78 26.76,-20.71 41.62,-35.57 155.46,-155.46 108.91,-415.61 -84.87,-510.29 -86.16,-42.1 -189.61,-41.74 -276.43,-1.31 -14.61,6.8 -34.15,18.79 -46,27.12 -27.67,19.46 -55.39,47.08 -75.48,74.83 -30.89,42.67 -58.55,108.89 -58.55,164.88z"/>
   <path class="fil0" d="M827.85 830.37c0,24.77 18.72,32.94 41.64,55.86 15.6,15.6 32.93,41.64 51.8,41.64 9.91,0 20.31,-9.43 20.31,-24.38 0,-10.59 -78.78,-89.37 -89.37,-89.37 -9.32,0 -24.37,-0.65 -24.37,16.25z"/>
   <path class="fil0" d="M1461.58 903.49c0,15.36 9.02,24.38 24.37,24.38 10.59,0 89.37,-78.78 89.37,-89.37 0,-20.91 -3.47,-24.37 -24.37,-24.37 -10.59,0 -89.37,78.78 -89.37,89.37z"/>
   <path class="fil0" d="M827.85 1537.23c0,20.91 3.47,24.37 24.37,24.37 8.28,0 89.37,-74.3 89.37,-93.43 0,-9.91 -9.43,-20.31 -24.38,-20.31 -10.59,0 -89.37,78.78 -89.37,89.37z"/>
   <path class="fil0" d="M1461.58 1468.17c0,19.13 81.09,93.43 89.37,93.43 20.91,0 24.37,-3.47 24.37,-24.37 0,-8.28 -74.3,-89.37 -93.43,-89.37 -9.47,0 -20.31,10.84 -20.31,20.31z"/>
   <path class="fil0" d="M681.6 1183.8c0,35.8 20.04,24.37 125.93,24.37 22.35,0 22.35,-40.62 0,-40.62l-109.69 0c-9.51,0 -16.25,6.74 -16.25,16.25z"/>
   <path class="fil0" d="M1579.39 1183.8c0,35.8 20.04,24.37 125.94,24.37 9.22,0 14.64,-6.92 16.25,-15.05l0 -10.52c-1.61,-8.13 -7.02,-15.05 -16.25,-15.05l-109.69 0c-9.51,0 -16.25,6.74 -16.25,16.25z"/>
   <path class="fil0" d="M1181.28 684.12l0 109.69c0,22.35 40.62,22.35 40.62,0l0 -109.69c0,-9.22 -6.92,-14.64 -15.05,-16.25l-10.52 0c-8.13,1.61 -15.05,7.02 -15.05,16.25z"/>
   <path class="fil0" d="M1181.28 1581.92l0 109.69c0,9.22 6.92,14.64 15.05,16.25l10.52 0c8.13,-1.61 15.05,-7.02 15.05,-16.25l0 -109.69c0,-22.35 -40.62,-22.35 -40.62,0z"/>
  </g>
 </g>
</svg>
