<?xml version="1.0" encoding="UTF-8"?>
<!DOCTYPE svg PUBLIC "-//W3C//DTD SVG 1.1//EN" "http://www.w3.org/Graphics/SVG/1.1/DTD/svg11.dtd">
<!-- Creator: CorelDRAW (Evaluation Version) -->
<svg xmlns="http://www.w3.org/2000/svg" xml:space="preserve" width="2.60417in" height="2.60417in" version="1.1" style="shape-rendering:geometricPrecision; text-rendering:geometricPrecision; image-rendering:optimizeQuality; fill-rule:evenodd; clip-rule:evenodd"
viewBox="0 0 2604.17 2604.17"
 xmlns:xlink="http://www.w3.org/1999/xlink"
 xmlns:xodm="http://www.corel.com/coreldraw/odm/2003">
 <defs>
  <style type="text/css">
   <![CDATA[
    .fil0 {fill:black}
   ]]>
  </style>
 </defs>
 <g id="Layer_x0020_1">
  <metadata id="CorelCorpID_0Corel-Layer"/>
  <g id="_1945164268128">
   <path class="fil0" d="M1023.41 910.99c19.19,-0.12 42.81,9.42 53.74,5.31 33.06,-12.44 -11.62,-55.47 48.81,-147.28 16,-24.31 39.51,-48.19 65.99,-62.45 14.58,-7.85 27.37,-15.05 44.25,-20.11 131.27,-39.36 255.9,59.68 264.24,173.55 5.85,79.92 6.05,47.93 68.7,47.54 80.04,-0.51 143.19,59.1 152.55,144.64 1.91,17.46 -5.83,47.55 -10.17,59.75 -10.6,29.76 -41.19,65.56 -68.49,79.91 -14.93,7.85 -37.52,16.44 -59.94,16.58l-569.81 3.61c-21.9,0.14 -41.39,-6.93 -57.44,-14.52 -18.5,-8.74 -28.67,-20.4 -42.27,-33.93 -25.7,-25.56 -44.07,-72.77 -40.86,-106.03 8.28,-85.65 70.67,-146.05 150.7,-146.56zm23.82 -40.28c-61.61,0.39 -98.28,1.06 -151.04,46.26 -52.02,44.58 -64.76,96.5 -64.33,163.77 0.54,84.9 90.94,176 189.72,175.37l553.76 -3.51c99.04,-0.63 188.02,-93.35 187.48,-177.76 -0.43,-67.27 -13.81,-119.03 -66.4,-162.94 -53,-44.27 -89.47,-44.74 -151.61,-44.35 -11.59,-129.35 -120.41,-231.98 -234.22,-231.26 -82.21,0.52 -132.76,15.31 -191.15,74.44 -43.41,43.97 -67.09,93.25 -72.22,159.97z"/>
   <path class="fil0" d="M1456.82 1546.3c0.26,41.5 64.89,26.53 47.88,-44.44 -18.05,-4.09 -28.36,-11.27 -38.65,13.67 -1.87,4.53 -9.24,28.19 -9.22,30.78z"/>
   <path class="fil0" d="M1150.68 1363.65c0.17,27.45 52.31,23.45 51.94,-36.44 -0.11,-18.14 -52.39,-34.48 -51.94,36.44z"/>
   <path class="fil0" d="M1176.56 1648.4c0.11,18.14 52.39,34.49 51.94,-36.44 -0.17,-27.45 -52.31,-23.44 -51.94,36.44z"/>
   <path class="fil0" d="M1488.37 1457.82c0.13,19.96 52.37,31.35 51.94,-36.45 -0.09,-13.86 -12.75,-17.31 -24.2,-19.91 -18.79,12.75 -27.84,40.09 -27.74,56.36z"/>
   <path class="fil0" d="M1228.24 1571.83c14.59,-3.49 17.84,-4.81 23.57,-16.6 6.18,-12.72 20.32,-55.91 -11.99,-55.7 -18.22,0.11 -21.79,18.74 -26.76,33.73 -8.2,24.72 -4.24,28.46 15.18,38.58z"/>
   <path class="fil0" d="M1263.75 1475.29c22.76,-0.14 48.07,-74.35 8.16,-71.39 -24.54,1.81 -48,71.64 -8.16,71.39z"/>
   <path class="fil0" d="M1352.64 1571.04c14.49,-3.47 16.71,-3.89 22.62,-17.55 13.99,-32.34 8.48,-36.5 5.04,-50.85 -25.83,-6.01 -29.62,-11.01 -42.79,29.86 -8,24.81 -4.57,28.27 15.13,38.54z"/>
   <path class="fil0" d="M1026.29 1364.43c0.11,17.33 30.8,27.28 42.74,-1.66 14.09,-34.15 8.28,-33.54 5.11,-46.8 -9.01,-2.04 -9.25,-3.95 -20.09,-3.89 -17.98,0.11 -27.88,33.29 -27.76,52.34z"/>
   <path class="fil0" d="M1300.93 1643.6c0.06,9.19 1.39,4.65 4.11,16.02 9.01,2.04 9.25,3.96 20.09,3.89 17.51,-0.11 53.06,-68.56 3.58,-68.25 -19.96,0.13 -27.8,47.25 -27.79,48.33z"/>
   <path class="fil0" d="M1119.17 1456.15c0.12,19.33 28.49,38.31 44.83,-7.69 21.88,-61.63 -45.25,-59.17 -44.83,7.69z"/>
   <path class="fil0" d="M963.27 1553.44c0.08,13.07 11.49,15.4 20.2,19.94 19.36,-10.4 19.05,-10.15 26.79,-33.7 17.61,-53.54 -47.42,-54.78 -46.98,13.76z"/>
   <path class="fil0" d="M1072.33 1665.11c25.6,-0.16 31.94,-25.28 31.77,-52.37 -0.11,-16.69 -14.97,-15.96 -24.18,-15.9 -15.47,0.1 -18.21,19.5 -22.76,33.81 -4.56,14.34 -4.83,34.59 15.17,34.46z"/>
   <path class="fil0" d="M1415.63 1378.02c25.6,-0.17 31.94,-25.28 31.77,-52.37 -0.1,-16.69 -14.97,-15.96 -24.18,-15.9 -20.1,0.13 -40.89,68.48 -7.59,68.27z"/>
   <path class="fil0" d="M1519.86 1361.31c0.05,7.47 30.22,33.21 43.94,-0.47 30.22,-74.17 -44.36,-65.66 -43.94,0.47z"/>
   <path class="fil0" d="M994.76 1456.93c0.06,9.19 1.39,4.66 4.12,16.02 20.08,4.67 28.79,13.06 40.74,-23.69 17.98,-55.26 -23.5,-48.36 -33.13,-32.71 -2.96,4.81 -11.78,32.04 -11.73,40.38z"/>
   <path class="fil0" d="M1384.13 1474.53c20.99,-0.13 51.81,-48.41 15.59,-72.33 -36.92,8.85 -46.07,72.53 -15.59,72.33z"/>
   <path class="fil0" d="M1275.05 1358.85c0.12,19.39 8.98,20 24.2,19.91 15.57,-0.1 49.47,-68.53 -0.43,-68.22 -15.13,0.1 -23.88,31.52 -23.77,48.31z"/>
   <path class="fil0" d="M931.76 1645.94c0.12,19.38 8.98,20.01 24.2,19.91 15.57,-0.1 49.47,-68.54 -0.43,-68.22 -15.13,0.09 -23.88,31.52 -23.77,48.31z"/>
   <path class="fil0" d="M1087.62 1544.63c0.13,21.21 2.59,18.77 20.24,27.96 20.88,-11.22 17.47,-9.74 25.7,-34.78 13.84,-42.09 -23.07,-50.13 -37.68,-20.92 -3.24,6.48 -8.31,19.42 -8.26,27.73z"/>
   <path class="fil0" d="M1425.3 1638.8c0.09,13.56 6.25,21.54 14.06,23.99l11.17 -0.07c6.92,-2.1 13.6,-7.96 17.56,-17.56 25.33,-61.37 -20.88,-62.44 -33.52,-33.1 -2.19,5.1 -9.29,24.05 -9.28,26.73z"/>
  </g>
 </g>
</svg>
