<?xml version="1.0" encoding="UTF-8"?>
<!DOCTYPE svg PUBLIC "-//W3C//DTD SVG 1.1//EN" "http://www.w3.org/Graphics/SVG/1.1/DTD/svg11.dtd">
<!-- Creator: CorelDRAW (Evaluation Version) -->
<svg xmlns="http://www.w3.org/2000/svg" xml:space="preserve" width="2.60417in" height="2.60417in" version="1.1" style="shape-rendering:geometricPrecision; text-rendering:geometricPrecision; image-rendering:optimizeQuality; fill-rule:evenodd; clip-rule:evenodd"
viewBox="0 0 2604.17 2604.17"
 xmlns:xlink="http://www.w3.org/1999/xlink"
 xmlns:xodm="http://www.corel.com/coreldraw/odm/2003">
 <defs>
  <style type="text/css">
   <![CDATA[
    .fil0 {fill:black}
   ]]>
  </style>
 </defs>
 <g id="Layer_x0020_1">
  <metadata id="CorelCorpID_0Corel-Layer"/>
  <g id="_1945273693888">
   <path class="fil0" d="M911.44 1283.12l0 -21c0,-47.52 50.5,-98.03 98.03,-98.03 25.8,0 51.13,5.71 58.28,-0.99 11.92,-11.18 -2.93,-54.7 30.73,-106.05 70.94,-108.22 253.73,-89.26 279.16,64.46 9.79,59.17 -9.99,42.58 65.94,42.58 47.51,0 98.03,51.08 98.03,98.03 0,40.28 -5.13,72.61 -37.85,98.69 -22.19,17.68 -49.26,27.35 -88.18,27.35l-378.1 0c-69.46,0 -126.04,-40.67 -126.04,-105.03zm661.09 -56.6l27.93 29.56c15.24,11.28 32.17,2.42 32.17,-14.97 0,-4.28 -61.57,-86.76 -73.52,-42.01 -7.39,-5.41 -8.92,-9.91 -14,-17.5 36.13,-24.19 56.02,-81.09 56.02,-136.54 0,-86.97 -81.08,-168.04 -168.04,-168.04 -54.76,0 -96.33,13.87 -134.02,51.54 -7.96,7.95 -20.61,21.55 -23.53,32.48 -14.67,-7.04 -37.81,-7 -56.02,-7 -92.68,0 -178.55,82.95 -178.55,175.05 -49.57,0 -83.17,2.28 -122.72,41.83 -90.42,90.42 -24.21,248.75 91.21,248.75l434.11 0c66.07,0 133.04,-67.15 133.04,-133.03l-1.24 -40.78c-0.08,-0.4 -1.85,-6.72 -2.37,-8.14 -3.19,-8.63 -1.03,-3.37 -3.4,-7.1l2.92 -4.09zm-160.46 -311l24.51 0c63.16,0 126.03,62.87 126.03,126.04 0,31.22 1.07,47.84 -14.15,76.87 -2.83,5.39 -8.02,12.9 -12.39,19.13 -6.68,9.53 -9.95,11.28 -15.48,19.54 -53.89,-28.52 -45.93,-28.01 -108.53,-28.01 0,-66.76 -57.93,-143.89 -101.53,-154.04 14.56,-21.73 17.57,-24.98 40.5,-40.02 14.73,-9.66 38.23,-19.5 61.02,-19.5z"/>
   <path class="fil0" d="M1282.54 1475.67c-10.79,-2.51 -16.39,-8.93 -22.4,2.22 -5.48,10.16 4.02,13.19 11.9,15.29 -7.24,10.82 -10.47,7.78 -14,21.01 13.56,9.08 10.94,9.08 24.5,0 0.24,10.67 1.58,12.76 3.5,21 17.28,-0.38 17.12,-0.22 17.51,-17.5 27.43,6.57 14.19,5.11 24.5,0 -1.19,-14.28 -1.8,-14.24 -14,-17.5 13.28,-18.12 17.29,1.13 10.5,-28.01 -11.89,0.99 -12.81,2.67 -21,7 0,-14.23 1.17,-11.27 -3.5,-21.01 -14.63,1.22 -16.29,2.87 -17.51,17.5z"/>
   <path class="fil0" d="M1226.52 1587.7c-7.64,-4.04 -15.52,-11.34 -22.02,-0.78 -8.31,13.51 3.83,11.29 11.52,21.78 -12.2,3.26 -12.81,3.23 -14,17.51 7.89,6.59 17.02,1.74 24.5,0 0.39,17.28 0.22,17.12 17.51,17.5 1.86,-7.98 2.71,-8.05 3.5,-17.5 12.54,6.63 7.86,6.28 21,3.5 4.02,-15.7 -1.36,-12.03 -10.5,-24.51 15.3,-8.1 5.91,1.3 14,-14l-4.02 -6.83c-12.62,-2.96 -7.94,-3.31 -20.48,3.33 -0.25,-11.17 -0.46,-18.8 -11.22,-19.49 -11.39,-0.72 -9.78,6.45 -9.78,19.49z"/>
   <path class="fil0" d="M1040.97 1475.67c-16.85,-3.92 -11.33,-5.33 -24.51,3.5 6.58,12.43 -0.62,10.1 14,14l0 7c-12.1,3.23 -10.77,1.9 -14,14 13.18,8.83 7.66,7.43 24.51,3.5 1.22,14.63 2.87,16.29 17.5,17.5 4.67,-9.73 3.5,-6.78 3.5,-21 16.54,11.08 26.55,9.14 22.89,-4.8 -2.69,-10.22 -4.66,-0.37 -8.89,-16.21 19.24,-5.13 16.01,-29.88 -14,-14 0,-14.23 1.17,-11.27 -3.5,-21.01 -14.63,1.22 -16.29,2.87 -17.5,17.5z"/>
   <path class="fil0" d="M1345.56 1587.7c-14.94,-7.91 -11.19,-8.92 -24.51,0 3.53,13.23 6.76,10.18 14,21 -7.88,2.11 -17.38,5.13 -11.9,15.29 6.02,11.15 11.61,4.73 22.41,2.22 0.56,25.42 20.44,25.42 21,0 12.46,2.9 16.17,10.7 22.09,0.71 8.08,-13.64 -3.81,-11.1 -11.58,-21.72 12.1,-3.23 10.77,-1.9 14,-14 -14.07,-16.85 -1.54,-8.85 -24.51,-3.5 -0.31,-13.97 -1.61,-12.96 -7,-21 -12.3,6.5 -13.59,2.24 -14,21z"/>
   <path class="fil0" d="M1163.5 1479.17c-17.02,-11.4 -26.75,-8.62 -23.41,5.31 3.3,13.78 3.91,-4.91 9.41,15.69 -19.24,5.14 -16.01,29.89 14,14 0,14.22 -1.17,11.27 3.5,21 14.63,-1.22 16.29,-2.87 17.51,-17.5 9.19,2.14 21,8.28 21,-7 0,-9.69 -2.7,-8.42 -10.5,-10.5l0 -7c12.11,-3.23 10.77,-1.9 14,-14 -13.18,-8.83 -7.66,-7.43 -24.5,-3.5 -1.22,-14.63 -2.87,-16.28 -17.51,-17.5 -4.67,9.74 -3.5,6.78 -3.5,21.01z"/>
   <path class="fil0" d="M1103.99 1587.7c-6.03,-4.04 -21,-15.42 -21,3.5 0,8.42 5.67,10.29 10.5,17.5 -6.55,3.47 -16.21,6.65 -11.59,15.6 5.45,10.55 15.19,5.22 22.09,1.91 0.79,9.45 1.64,9.52 3.5,17.5 17.28,-0.39 17.12,-0.22 17.51,-17.5 12.57,2.93 16.06,10.71 22.08,0.72 7.05,-11.69 -2.29,-15.74 -11.58,-18.22 0.63,-0.55 1.74,-2.07 2.02,-1.48 0.28,0.6 1.6,-1.19 1.97,-1.53 0.37,-0.34 1.47,-1.16 1.91,-1.6 9.64,-9.63 5.54,-3.27 8.11,-12.9 -14.07,-16.85 -1.54,-8.85 -24.5,-3.5 0,-12.72 1.56,-20.6 -9.68,-19.39 -9.8,1.06 -10.53,9.79 -11.33,19.39z"/>
   <path class="fil0" d="M1405.07 785.98c0,21.57 -7.38,70.3 17.5,73.52 30.96,4.02 21.64,-69.78 17.5,-87.52 -11.73,-2.73 -35.01,-7.63 -35.01,14z"/>
   <path class="fil0" d="M1405.07 1479.17c-30.02,-15.88 -33.24,8.87 -14,14l0 7c-19.24,5.14 -16.01,29.89 14,14 0,18.15 -3.13,13.59 7,21 14.37,-3.83 10.5,-2.61 10.5,-21 6.06,3.21 17.08,12.73 22.94,1.84 8.32,-15.48 -4.36,-5.7 -8.94,-22.85 19.24,-5.13 16.01,-29.88 -14,-14 0,-18.16 3.12,-13.59 -7,-21.01 -14.37,3.84 -10.5,2.61 -10.5,21.01z"/>
   <path class="fil0" d="M1643.13 1073.06c54.85,0 72.69,6.52 63.02,-35.01 -25.55,-5.96 -32.51,-3.5 -63.02,-3.5 -31.78,0 -31.78,38.51 0,38.51z"/>
   <path class="fil0" d="M1289.54 908.52c0.11,-0.18 10.65,-0.13 -2.49,-18.11 -3.49,-4.78 -11.2,-11.39 -15.89,-16.03 -4.57,-4.52 -27.08,-28.88 -30.64,-28.88 -14.13,0 -24.71,7.44 -23.66,20.47 0.7,8.7 61.36,84.9 72.67,42.55z"/>
   <path class="fil0" d="M1632.63 866.51c0,-13.23 -7.77,-21.01 -21,-21.01 -10.57,0 -28.33,23.2 -35.91,30.61 -11.18,10.92 -27.56,23.57 -12.41,38.72 22.74,22.74 69.33,-45.65 69.33,-48.32z"/>
  </g>
 </g>
</svg>
