<?xml version="1.0" encoding="UTF-8"?>
<!DOCTYPE svg PUBLIC "-//W3C//DTD SVG 1.1//EN" "http://www.w3.org/Graphics/SVG/1.1/DTD/svg11.dtd">
<!-- Creator: CorelDRAW (Evaluation Version) -->
<svg xmlns="http://www.w3.org/2000/svg" xml:space="preserve" width="2.60417in" height="2.60417in" version="1.1" style="shape-rendering:geometricPrecision; text-rendering:geometricPrecision; image-rendering:optimizeQuality; fill-rule:evenodd; clip-rule:evenodd"
viewBox="0 0 2604.17 2604.17"
 xmlns:xlink="http://www.w3.org/1999/xlink"
 xmlns:xodm="http://www.corel.com/coreldraw/odm/2003">
 <defs>
  <style type="text/css">
   <![CDATA[
    .fil0 {fill:black}
   ]]>
  </style>
 </defs>
 <g id="Layer_x0020_1">
  <metadata id="CorelCorpID_0Corel-Layer"/>
  <g id="_1945325985568">
   <path class="fil0" d="M1027.12 1070.22l0 11.25c-21.63,-0.48 -15.69,-4.67 -38.54,-1.31 -115.18,16.87 -172.63,113.31 -147.36,209.7 4.38,16.72 10.02,20.48 13.46,35.27l41.24 0c-24.2,-45.74 -37.21,-82.37 -10.67,-138.12 48.96,-102.81 159.3,-59.26 171.86,-71.81 8.45,-8.46 -13.86,-125.34 104.87,-183.78 51.07,-25.13 102.35,-24.17 154.95,-1.07 42.56,18.69 74.05,57.16 91.08,100.09 12.34,31.08 5.44,53.55 12.71,84.75 25.54,5.95 30.29,0 63.73,0 64.26,0 123.7,59.33 123.7,134.95 0,38.07 -16.46,49.08 -22.49,74.98l37.48 0c46.37,-87.63 9.86,-200.43 -95.9,-237.73 -29.56,-10.43 -43.51,-8.37 -72.79,-5.93 -2.31,-103.76 -99.14,-202.43 -202.43,-202.43 -67.63,0 -116.89,15.35 -162.26,58.91 -25.57,24.55 -62.66,84.4 -62.66,132.27z"/>
   <path class="fil0" d="M828.44 1366.36l3.75 22.49c8.41,1.96 8.62,3.75 18.74,3.75l787.21 0c36.7,0 30,-41.23 7.5,-41.23l-802.2 0c-8.78,0 -15,6.22 -15,14.99z"/>
   <path class="fil0" d="M869.68 1441.33c0,14.33 11.1,22.49 26.24,22.49l783.46 0c35.21,0 32.08,-41.24 11.24,-41.24l-805.96 0c-10.12,0 -14.99,9.98 -14.99,18.74z"/>
   <path class="fil0" d="M910.91 1512.56c0,8.76 4.87,18.74 14.99,18.74l686 0c20.84,0 23.96,-41.24 -11.24,-41.24l-663.51 0c-15.14,0 -26.24,8.16 -26.24,22.49z"/>
   <path class="fil0" d="M1102.09 1583.78c0,8.59 1.27,4.36 3.75,15 40.68,9.48 476.11,3.75 554.8,3.75 23.36,0 12.94,-30.21 11.25,-37.49 -40.56,-9.45 -465.92,-3.75 -543.56,-3.75 -15.14,0 -26.24,8.16 -26.24,22.49z"/>
   <path class="fil0" d="M843.44 1580.04c0,10.12 1.79,10.33 3.75,18.74 36.11,8.41 150.45,3.75 194.93,3.75 23.28,0 28.65,-41.24 -7.5,-41.24l-164.94 0c-12.63,0 -26.24,6.63 -26.24,18.74z"/>
  </g>
 </g>
</svg>
