<?xml version="1.0" encoding="UTF-8"?>
<!DOCTYPE svg PUBLIC "-//W3C//DTD SVG 1.1//EN" "http://www.w3.org/Graphics/SVG/1.1/DTD/svg11.dtd">
<!-- Creator: CorelDRAW (Evaluation Version) -->
<svg xmlns="http://www.w3.org/2000/svg" xml:space="preserve" width="2.60417in" height="2.60417in" version="1.1" style="shape-rendering:geometricPrecision; text-rendering:geometricPrecision; image-rendering:optimizeQuality; fill-rule:evenodd; clip-rule:evenodd"
viewBox="0 0 2604.17 2604.17"
 xmlns:xlink="http://www.w3.org/1999/xlink"
 xmlns:xodm="http://www.corel.com/coreldraw/odm/2003">
 <defs>
  <style type="text/css">
   <![CDATA[
    .fil0 {fill:black}
   ]]>
  </style>
 </defs>
 <g id="Layer_x0020_1">
  <metadata id="CorelCorpID_0Corel-Layer"/>
  <g id="_1945154773792">
   <path class="fil0" d="M980.63 932.26c31.88,-0.02 47.79,5.2 70.28,-0.06 6.62,-28.51 4.1,-57.1 13.29,-86.53 14.47,-46.3 52.98,-89.76 96.18,-110.96 105.09,-51.57 229.08,3.23 264.61,107.89 9.8,28.86 7.28,59.18 14.32,89.31 44.13,10.25 62.56,-15.05 122.14,14.65 131.85,65.72 77.88,262.63 -55.35,262.73l-521.57 0.39c-83.06,0.06 -159.87,-92.23 -121.8,-191.84 6.04,-15.8 14.49,-28.37 26.3,-40.28 24.82,-25.06 51.55,-45.28 91.59,-45.3zm36.96 -51.81l0.01 11.09 -29.59 0.02c-90.23,0.07 -173.8,80.2 -173.73,170.29l0.01 18.49c0.07,89.6 83.86,170.1 173.98,170.03l514.17 -0.38c90.12,-0.07 173.8,-80.69 173.73,-170.29l-0.01 -18.49c-0.07,-90.09 -83.76,-170.1 -173.98,-170.03l-29.59 0.02c-0.08,-113.02 -107.31,-214.47 -211.01,-214.39 -69.51,0.05 -123.09,11.17 -176.67,63.86 -17.9,17.61 -32.15,35.63 -44.04,59.52 -9.76,19.6 -23.3,53.06 -23.28,80.26z"/>
   <path class="fil0" d="M1032.71 1328.02c-8.66,-4.57 -9.64,-6.35 -22.2,-7.39l-7.59 14.7c9.26,13.62 10.32,7.17 18.71,18.59 -15.1,3.53 -14.97,3.4 -18.48,18.51 16.07,10.74 13.54,10.74 29.59,-0.02 0.02,20.24 -2.11,17.04 11.11,25.88 14.34,-3.84 14.41,-5 14.78,-22.2 10.57,2.46 20.79,9.66 27.32,-2.31 5.94,-10.87 -7.39,-17.53 -16.24,-19.89 8.37,-11.44 9.44,-4.99 18.48,-18.51 -11.3,-21.33 -9.52,-12.07 -29.6,-7.38 -0.26,-11.27 -1.68,-13.49 -3.71,-22.19l-18.5 0.01c-2.02,8.71 -3.44,10.93 -3.68,22.2z"/>
   <path class="fil0" d="M1461.81 1327.7c-8.66,-4.57 -9.64,-6.35 -22.2,-7.39 -13.76,24.55 -0.26,17.77 11.13,33.29 -15.11,3.53 -14.98,3.4 -18.48,18.51 16.07,10.74 13.54,10.74 29.59,-0.02 0.02,20.24 -2.11,17.05 11.11,25.88 14.34,-3.84 14.41,-5 14.78,-22.2 10.57,2.46 20.78,9.66 27.32,-2.31 5.94,-10.87 -7.39,-17.53 -16.24,-19.89 10.19,-13.92 13.46,-3.35 18.48,-22.21 -12.01,-16.37 -12.35,-7.71 -29.59,-3.68 -0.26,-11.27 -1.69,-13.48 -3.72,-22.19 -19.44,0.45 -21.76,2.77 -22.17,22.21z"/>
   <path class="fil0" d="M1180.67 1327.91c-21.17,-4.92 -7.74,-8.78 -29.59,-3.68 0.02,30.09 0.91,8.84 14.82,29.58 -23.27,6.23 -22.66,38.35 14.81,18.48 0.01,15.56 -1.54,14.94 3.72,25.89 18.85,-1.58 18.49,-6.22 18.48,-25.91 11.71,7.83 29.6,14.44 29.59,-3.72 -0.01,-11.83 -1.8,-6.05 -7.45,-11.04l-11.06 -7.44c13.71,-3.67 4.78,-3.74 18.49,-7.41 -0.74,-32.12 -12.07,-18.87 -29.6,-14.77 -0.01,-12.86 2.24,-22.2 -11.12,-22.19 -13.36,0.01 -11.09,9.34 -11.08,22.2z"/>
   <path class="fil0" d="M1324.94 1327.81c-17.18,-4.57 -16.65,-15.65 -29.59,3.72 3.43,12.79 2.02,11.38 14.81,14.79 -5.65,21.23 -14.79,4.31 -14.78,22.2 0.02,21.15 23.48,6.92 29.6,3.68 0.02,19.69 -0.34,24.32 18.51,25.88 5.25,-10.95 3.69,-10.33 3.68,-25.89 7.45,3.93 29.61,16.76 29.59,-3.72 -0.01,-11.57 -6.65,-10.47 -14.81,-14.78 8.5,-11.63 14.8,-5.7 14.78,-18.51 -0.02,-22.03 -17.93,-10.1 -29.6,-7.37 -0.01,-12.86 2.25,-22.2 -11.12,-22.19 -13.35,0.01 -11.09,9.34 -11.07,22.2z"/>
   <path class="fil0" d="M966.24 1479.73c-37.19,-19.64 -38.54,12.18 -14.78,18.51 -13.88,20.76 -14.8,-0.48 -14.78,29.6 21.85,5.08 8.43,1.22 29.59,-3.72 0.01,12.87 -2.24,22.2 11.12,22.19 13.36,-0.01 11.09,-9.34 11.08,-22.2 17,8.98 18.3,13.17 29.59,-3.72 -3.43,-12.79 -2.02,-11.38 -14.81,-14.78l-0 -7.4c19.39,-5.2 14.83,-9.83 11.08,-25.91 -15.14,0.35 -16.09,2.22 -25.89,7.42 -0.01,-13.04 0.77,-23.5 -11.88,-24.28 -13.25,-0.82 -10.33,9.79 -10.32,24.3z"/>
   <path class="fil0" d="M1110.5 1479.63c-9.81,-5.18 -10.76,-7.06 -25.89,-7.38 -8.4,36.17 4.18,7.36 11.12,33.28 -12.78,3.43 -11.38,2.02 -14.78,14.81 16.17,19.33 5.3,9.36 29.59,3.68 0.01,12.86 -2.24,22.2 11.12,22.19 13.36,-0.01 11.09,-9.34 11.08,-22.2 3.87,1.03 29.61,18.86 29.59,-3.72 -0.01,-11.24 -6.43,-12.56 -14.81,-14.79l-0 -7.4c12.02,-2.81 13.33,-0.71 14.88,-11.63 3.85,-27.26 -28.12,-7.27 -29.69,-6.85 -0.01,-14.51 2.9,-25.12 -10.35,-24.28 -12.65,0.8 -11.85,11.26 -11.85,24.3z"/>
   <path class="fil0" d="M1395.33 1479.42c-37.19,-19.64 -38.55,12.18 -14.78,18.51 -13.87,20.75 -14.8,-0.48 -14.78,29.6 21.86,5.08 8.43,1.23 29.59,-3.72 0.01,12.86 -2.24,22.19 11.12,22.19 13.36,-0.01 11.09,-9.34 11.08,-22.2 17,8.98 18.3,13.17 29.59,-3.72 -3.43,-12.78 -2.02,-11.38 -14.81,-14.78l-0 -7.4c23.26,-6.23 22.66,-38.35 -14.81,-18.48 -0.02,-32.63 -22.22,-37.62 -22.2,0.02z"/>
   <path class="fil0" d="M1267.71 1479.51c-29.02,-10.74 -26.48,-10.74 -42.54,0.03 3.53,15.1 3.4,14.97 18.51,18.48 -10.18,13.92 -13.46,3.35 -18.48,22.21 11.32,16.88 12.61,12.68 29.59,3.68 0.01,15.03 -1.22,11.91 3.72,22.19l18.5 -0.01c2.02,-8.71 3.44,-10.93 3.69,-22.2 8.65,4.57 9.63,6.34 22.2,7.38 12.48,-22.26 3.2,-15.11 -7.42,-29.59 11.24,-15.36 9.65,0.75 14.78,-18.5 -16.09,-24 -10.27,-3.69 -42.54,-3.67z"/>
  </g>
 </g>
</svg>
