<?xml version="1.0" encoding="UTF-8"?>
<!DOCTYPE svg PUBLIC "-//W3C//DTD SVG 1.1//EN" "http://www.w3.org/Graphics/SVG/1.1/DTD/svg11.dtd">
<!-- Creator: CorelDRAW (Evaluation Version) -->
<svg xmlns="http://www.w3.org/2000/svg" xml:space="preserve" width="2.60417in" height="2.60417in" version="1.1" style="shape-rendering:geometricPrecision; text-rendering:geometricPrecision; image-rendering:optimizeQuality; fill-rule:evenodd; clip-rule:evenodd"
viewBox="0 0 2604.17 2604.17"
 xmlns:xlink="http://www.w3.org/1999/xlink"
 xmlns:xodm="http://www.corel.com/coreldraw/odm/2003">
 <defs>
  <style type="text/css">
   <![CDATA[
    .fil0 {fill:black}
   ]]>
  </style>
 </defs>
 <g id="Layer_x0020_1">
  <metadata id="CorelCorpID_0Corel-Layer"/>
  <g id="_1909252548272">
   <path class="fil0" d="M1604.34 1174.26l-540.22 8.78c-29.42,0.48 -71.07,-22.91 -86.91,-38.25 -53.8,-52.08 -58.13,-140.23 0.66,-201.17 58.65,-60.8 125.72,-35.62 142.98,-37.24 37.24,-3.47 -6,-50.33 46.95,-134.72 51.97,-82.81 156.48,-109.07 247.28,-70.95 18.85,7.92 46.36,28.14 59.45,41.83 65.11,68.1 46.67,143.33 56.2,152.57 18.5,8.51 38.63,-0.63 60.93,-0.99 75.8,-1.23 143.2,61.16 144.41,135.8 1.22,74.72 -57.52,143.14 -131.73,144.34zm-872.83 -206.75l-0.38 -23.64c1.2,-16.15 5.39,-32.15 12.62,-46.98 22.11,-45.35 71.14,-67.35 123.65,-68.2 0.41,-66.15 53.74,-118.12 105.77,-137.5 96.2,-35.82 146.94,24.02 177.11,43.52 12.61,-19.52 12.07,-16.46 28.93,-31.96 85.43,-78.57 230.63,-74.71 313,5.02 40.9,39.59 69.43,88.83 70.43,150.27l40.62 -0.66c81.15,-1.32 167.86,79.07 169.17,159.77l0.46 28.43c1.43,88.28 -81.72,167.91 -196.32,169.77l-483.36 7.85c-56.85,0.92 -95,-15.53 -129.04,-40.15 -26.09,-18.87 -60.39,-67.75 -64.3,-107.03 -61.37,1 -75.98,5.54 -115.89,-20.71 -31.17,-20.52 -48.74,-53.27 -52.46,-87.78zm368.07 -101.96c-60.31,0.98 -109.08,5.51 -155.65,57.22 -25.31,28.11 -48.37,70.74 -48.67,120.8l-40.62 0.66c-113.55,1.84 -125.42,-178.52 1.04,-178.9 51.44,-0.16 42.89,0.66 45.18,-20.23 4.72,-42.88 8.51,-60.96 33.32,-87.69 55.46,-59.79 151.69,-52.26 192.18,6.13 -3.89,18.02 -12.42,26 -17.98,46.56 -4.3,15.87 -9.08,37.85 -8.8,55.45z"/>
   <path class="fil0" d="M1249.01 1310.05c-18.82,-9.57 -20.31,-14.15 -32.43,4.59 7.54,26.5 9.11,-2.4 16.65,24.11 -13.98,3.98 -12.46,2.41 -15.99,16.51 13.47,17.77 13.69,8.26 32.56,3.54 0.23,14.12 -2.09,24.41 12.58,24.17 14.67,-0.24 12.02,-10.44 11.79,-24.57 18.94,4.73 18.54,16.89 32.43,-4.59 -3.98,-13.98 -2.41,-12.46 -16.51,-15.98l-0.13 -8.13c13.98,-3.98 12.46,-2.41 15.98,-16.51 -18.09,-20.96 -5.98,-10.19 -32.56,-3.54 -0.23,-14.13 2.09,-24.41 -12.58,-24.17 -14.67,0.24 -12.02,10.44 -11.8,24.57z"/>
   <path class="fil0" d="M1094.66 1312.56c-18.82,-9.57 -20.31,-14.15 -32.43,4.59 7.54,26.5 9.1,-2.4 16.65,24.11 -13.99,3.98 -12.46,2.41 -15.99,16.51 13.47,17.77 13.69,8.25 32.56,3.53 0.23,14.13 -2.09,24.41 12.58,24.17 14.67,-0.24 12.02,-10.44 11.79,-24.57 18.94,4.73 18.54,16.89 32.43,-4.59 -3.98,-13.98 -2.41,-12.46 -16.51,-15.98l-0.13 -8.13c13.98,-3.98 12.46,-2.41 15.98,-16.51 -18.09,-20.95 -5.98,-10.18 -32.56,-3.54 -0.23,-14.12 2.09,-24.41 -12.58,-24.17 -14.67,0.24 -12.02,10.44 -11.79,24.57z"/>
   <path class="fil0" d="M1557.71 1305.04c-19.35,-9.84 -15.24,-11.44 -32.5,0.53 7.31,29.24 9.89,4.21 16.71,28.17 -13.98,3.98 -12.46,2.41 -15.98,16.51 13.46,17.76 13.69,8.25 32.56,3.53 0.23,14.13 -2.09,24.41 12.58,24.17 14.67,-0.24 12.02,-10.44 11.79,-24.57 18.94,4.73 18.54,16.89 32.43,-4.59 -3.98,-13.98 -2.41,-12.46 -16.51,-15.98l-0.13 -8.12c13.98,-3.98 12.46,-2.41 15.98,-16.51 -18.09,-20.95 -5.98,-10.18 -32.56,-3.54 -0.23,-14.12 2.09,-24.41 -12.59,-24.17 -14.67,0.24 -12.02,10.44 -11.79,24.57z"/>
   <path class="fil0" d="M1403.36 1307.54c-19.35,-9.84 -15.24,-11.44 -32.49,0.53 7.31,29.23 9.89,4.21 16.7,28.17 -13.98,3.98 -12.46,2.41 -15.98,16.51 13.46,17.77 13.69,8.26 32.56,3.54 0.23,14.13 -2.09,24.41 12.58,24.17 14.67,-0.24 12.02,-10.44 11.79,-24.57 18.94,4.73 18.54,16.89 32.43,-4.59 -3.98,-13.98 -2.41,-12.46 -16.51,-15.98l-0.13 -8.13c13.98,-3.97 12.46,-2.41 15.98,-16.51 -18.09,-20.95 -5.98,-10.19 -32.56,-3.54 -0.23,-14.13 2.09,-24.41 -12.58,-24.17 -14.67,0.24 -12.02,10.44 -11.79,24.57z"/>
   <path class="fil0" d="M1487.17 1464.63c-19.01,-4.1 -19.55,-13.61 -32.43,4.59 3.98,13.98 2.41,12.46 16.51,15.98 -6.68,26.74 -9.18,-2.09 -15.85,24.64 12.72,18.34 14.06,13.71 32.56,3.54 0.23,14.12 -2.09,24.41 12.58,24.17 14.67,-0.24 12.02,-10.44 11.79,-24.57 18.82,9.57 20.31,14.15 32.43,-4.59 -5.99,-21.05 -3.95,-3.39 -16.58,-20.04 11,-7.63 14.73,-7.83 15.85,-24.63 -17.64,-9.54 -24.43,-0.96 -32.43,4.59 -0.44,-26.82 5.07,-22.77 -16.71,-28.17 -8.69,8.51 -8.01,7.08 -7.73,24.5z"/>
   <path class="fil0" d="M1178.47 1469.65c-19.01,-4.11 -19.54,-13.61 -32.43,4.59 3.98,13.98 2.41,12.46 16.52,15.98l0.13 8.13c-13.98,3.98 -12.46,2.41 -15.98,16.51 12.72,18.34 14.06,13.72 32.56,3.54 0.23,14.13 -2.09,24.41 12.59,24.17 14.67,-0.24 12.02,-10.44 11.79,-24.57 19.35,9.84 15.24,11.44 32.5,-0.53 -2.49,-9.95 -1.97,-10.81 -13.39,-19.21 -0.66,-0.48 -1.83,-1.19 -2.44,-1.61 -0.61,-0.42 -1.94,-1.28 -2.44,-1.61 -0.5,-0.33 -1.69,-0.98 -2.44,-1.61 13.89,-3.95 18.82,-8.34 19.91,-24.7 -17.64,-9.54 -24.43,-0.96 -32.43,4.59 -0.43,-26.82 5.08,-22.77 -16.7,-28.17 -8.69,8.51 -8.01,7.08 -7.73,24.5z"/>
   <path class="fil0" d="M1332.82 1467.14c-19.01,-4.11 -19.55,-13.61 -32.43,4.59 3.98,13.98 2.41,12.46 16.51,15.98 -6.68,26.74 -9.18,-2.09 -15.85,24.64 12.71,18.34 14.06,13.71 32.56,3.53 0.23,14.13 -2.09,24.41 12.58,24.17 14.67,-0.24 12.02,-10.44 11.79,-24.57 19.35,9.83 15.24,11.44 32.5,-0.53 -2.81,-11.26 -2.96,-11.89 -15.82,-20.83l-4.88 -3.22c13.89,-3.95 18.82,-8.34 19.91,-24.7 -17.64,-9.54 -24.42,-0.96 -32.43,4.59 -0.44,-26.82 5.08,-22.77 -16.7,-28.17 -8.69,8.51 -8.02,7.09 -7.73,24.5z"/>
  </g>
 </g>
</svg>
