<?xml version="1.0" encoding="UTF-8"?>
<!DOCTYPE svg PUBLIC "-//W3C//DTD SVG 1.1//EN" "http://www.w3.org/Graphics/SVG/1.1/DTD/svg11.dtd">
<!-- Creator: CorelDRAW (Evaluation Version) -->
<svg xmlns="http://www.w3.org/2000/svg" xml:space="preserve" width="2.60417in" height="2.60417in" version="1.1" style="shape-rendering:geometricPrecision; text-rendering:geometricPrecision; image-rendering:optimizeQuality; fill-rule:evenodd; clip-rule:evenodd"
viewBox="0 0 2604.17 2604.17"
 xmlns:xlink="http://www.w3.org/1999/xlink"
 xmlns:xodm="http://www.corel.com/coreldraw/odm/2003">
 <defs>
  <style type="text/css">
   <![CDATA[
    .fil0 {fill:black}
   ]]>
  </style>
 </defs>
 <g id="Layer_x0020_1">
  <metadata id="CorelCorpID_0Corel-Layer"/>
  <path class="fil0" d="M1530.65 1420.08l-434.13 0c-61.45,0 -116.22,-57.28 -116.22,-105.97l0 -20.51c0,-61.24 58.33,-112.81 119.65,-112.81 13.17,0 31.62,7.5 40.06,5.61 25.43,-5.7 -2.59,-55.73 39.44,-114.12 48.57,-67.46 130.74,-91.93 206.26,-57.61 68.51,31.14 93.68,90.02 93.68,162.7 23.09,20.01 14.08,3.42 51.28,3.42 64.73,0 123.06,54.87 123.06,116.22 0,70.36 -52.7,123.06 -123.06,123.06zm-410.2 -270.05l-23.93 0c-80.62,0 -150.41,70.46 -150.41,150.41 -32.99,0 -56.04,-0.69 -78.3,-17.42 -61.7,-46.39 -21.56,-136.41 40.69,-136.41 25.18,0 33.15,5.25 39.78,-1 7,-6.6 4.54,-12.32 6.16,-24.83 3.13,-24.15 5.47,-32.61 16.13,-48.82 43.19,-65.68 137.59,-61.44 173.79,-7.38 -2.81,12.05 -10.07,24.65 -15.04,39.65 -4.54,13.69 -8.89,29.25 -8.89,45.81zm44.44 -109.39c-29.38,-19.67 -64.3,-65.47 -148.33,-38.94 -48.18,15.21 -89.89,66.28 -90.96,114.14 -65.96,0 -116.22,46.1 -116.22,95.71 0,39.55 6.22,69.32 41.85,94.89 28.98,20.8 50.57,21.34 98.3,21.34 4.77,57.32 74.12,123.06 136.74,123.06l458.06 0c68.29,0 140.15,-68.83 140.15,-136.74l0 -2.94c-0.01,-29.99 -0.38,-47.12 -13.62,-75.73 -20.67,-44.65 -75.31,-85.41 -129.95,-85.41l-30.76 0c0,-54.28 -26,-96.32 -57.19,-127.4 -80.94,-80.67 -230.35,-68.18 -288.06,18.01z"/>
 </g>
</svg>
