<?xml version="1.0" encoding="UTF-8"?>
<!DOCTYPE svg PUBLIC "-//W3C//DTD SVG 1.1//EN" "http://www.w3.org/Graphics/SVG/1.1/DTD/svg11.dtd">
<!-- Creator: CorelDRAW (Evaluation Version) -->
<svg xmlns="http://www.w3.org/2000/svg" xml:space="preserve" width="2.60417in" height="2.60417in" version="1.1" style="shape-rendering:geometricPrecision; text-rendering:geometricPrecision; image-rendering:optimizeQuality; fill-rule:evenodd; clip-rule:evenodd"
viewBox="0 0 2604.17 2604.17"
 xmlns:xlink="http://www.w3.org/1999/xlink"
 xmlns:xodm="http://www.corel.com/coreldraw/odm/2003">
 <defs>
  <style type="text/css">
   <![CDATA[
    .fil0 {fill:black}
   ]]>
  </style>
 </defs>
 <g id="Layer_x0020_1">
  <metadata id="CorelCorpID_0Corel-Layer"/>
  <path class="fil0" d="M765.49 1350.5c0,-57.92 9.9,-95.3 51.69,-135.18 26.78,-25.55 68.15,-47.63 118.93,-47.63 44.58,0 40.38,17.87 73.12,-4.06 0,-100.84 32.54,-181.69 123.14,-230.29 115.35,-61.87 271.87,-13.3 325,123.39 12.97,33.37 14.98,62.07 14.98,106.89 32.74,21.93 28.54,4.06 73.12,4.06 91.83,0 170.62,76.86 170.62,158.44l0 24.37c0,78.47 -79.54,158.43 -158.43,158.43l-633.73 0c-78.89,0 -158.43,-79.54 -158.43,-158.43zm199.06 -227.5l-36.56 0c-106.82,0 -207.18,96.91 -207.18,203.12 0,68.76 15.89,119.46 59.84,163.59 27.35,27.46 82.93,63.9 135.15,63.9l641.86 0c105.15,0 203.12,-97.98 203.12,-203.12l0 -24.37c0,-106.21 -100.36,-203.12 -207.18,-203.12l-36.56 0c0,-128.16 -127.02,-259.99 -255.93,-259.99 -90.39,0 -152.96,16.3 -216.4,80.15 -36.5,36.74 -80.15,108.91 -80.15,179.84z"/>
 </g>
</svg>
