<?xml version="1.0" encoding="UTF-8"?>
<!DOCTYPE svg PUBLIC "-//W3C//DTD SVG 1.1//EN" "http://www.w3.org/Graphics/SVG/1.1/DTD/svg11.dtd">
<!-- Creator: CorelDRAW (Evaluation Version) -->
<svg xmlns="http://www.w3.org/2000/svg" xml:space="preserve" width="2.60417in" height="2.60417in" version="1.1" style="shape-rendering:geometricPrecision; text-rendering:geometricPrecision; image-rendering:optimizeQuality; fill-rule:evenodd; clip-rule:evenodd"
viewBox="0 0 2604.17 2604.17"
 xmlns:xlink="http://www.w3.org/1999/xlink"
 xmlns:xodm="http://www.corel.com/coreldraw/odm/2003">
 <defs>
  <style type="text/css">
   <![CDATA[
    .fil0 {fill:black}
   ]]>
  </style>
 </defs>
 <g id="Layer_x0020_1">
  <metadata id="CorelCorpID_0Corel-Layer"/>
  <path class="fil0" d="M1219.21 1554.57l14.19 -42.78c54.48,-187.7 74.48,-154.76 -117.61,-154.76 3.17,-11.87 90.13,-103.33 104.98,-117.96l106.81 -116.13c-46.53,199.7 -100.78,170.92 130.04,170.92l-117.8 131.14c-6.28,7.51 -6.07,9 -13.13,16.59 -5.47,5.88 -9.56,8.83 -14.88,14.85 -6.55,7.41 -6.52,9.25 -13.06,16.66l-59.83 66.5c-6.26,7.76 -9.85,9.81 -15.38,18.06l-4.33 -3.1zm-467.55 -480.4l0 -22.83c5.25,-53.05 47.02,-103.03 126.33,-103.03 1.91,-85.54 101.69,-155.26 192,-125.12 15.29,5.1 25.76,10.14 37.76,17.97 12.83,8.37 18.63,17.56 30.33,25.4 11.82,-17.66 11.28,-14.87 26.93,-28.8 46.19,-41.12 92.2,-49.23 151.41,-49.23 74.51,0 144.7,52.62 175.96,113.86 14.71,28.82 20.97,48.09 20.97,83.07l37.15 0c74.23,0 152.34,74.81 152.34,148.62l0 26.01c0,65.76 -58.61,124.18 -108.14,140.81 -61.52,20.66 -92.44,4.25 -111.8,14.53l-175 196.55c-19.09,22.83 -41.2,42.17 -59.93,66.41 -6.03,7.81 -50.37,61.02 -61.6,61.02 -31.34,0 -13.67,-33.44 -7.43,-55.74l35.86 -127.62c5.38,-18.61 15.73,-46.29 16.16,-65.59l-148.63 0c-61.18,0 20.3,-69.5 26.01,-78.03 -69.7,0 -94.99,-3.74 -138.29,-32.63 -28.29,-18.88 -62.63,-63.53 -66.07,-104.85 -56.14,0 -69.57,3.94 -105.67,-20.66 -28.01,-19.09 -43.63,-48.98 -46.67,-80.13zm386.43 201.11c-62.44,0 -118.74,9.36 -164.37,-36.27 -48.43,-48.43 -51.07,-129.1 3.59,-183.96 54.54,-54.72 115.5,-30.71 131.31,-31.93 21.61,-1.67 13.36,-15.39 16.65,-39.33 18.87,-137.33 143.79,-193.43 255.48,-144.39 111.5,48.95 96.42,173.04 102.88,179.5 16.79,8.06 35.33,0 55.74,0 69.34,0 130.05,58.06 130.05,126.33 0,68.35 -54.73,130.05 -122.61,130.05 -85.77,0 26.54,-14.86 -115.19,-14.86 -35.92,0 -71.83,0 -107.75,0l45.88 -165.91c6.91,-23.58 19.25,-49.59 -8.72,-49.59 -13.59,0 -117.2,123.12 -138.37,144.01l-67.39 73.8c-4.94,6.44 -8.2,12.56 -17.17,12.56zm-48.3 -289.81c-55.17,0 -99.83,3.42 -143.19,50.02 -23.57,25.32 -45.28,63.97 -46.3,109.75l-37.16 0c-103.87,0 -112.05,-165.12 3.61,-163.59 47.05,0.62 39.21,1.24 41.62,-17.83 4.94,-39.15 8.69,-55.61 31.77,-79.7 51.61,-53.86 139.5,-45.54 175.66,8.46 -3.98,17.11 -26.01,47.59 -26.01,92.89z"/>
 </g>
</svg>
