<?xml version="1.0" encoding="UTF-8"?>
<!DOCTYPE svg PUBLIC "-//W3C//DTD SVG 1.1//EN" "http://www.w3.org/Graphics/SVG/1.1/DTD/svg11.dtd">
<!-- Creator: CorelDRAW (Evaluation Version) -->
<svg xmlns="http://www.w3.org/2000/svg" xml:space="preserve" width="2.60417in" height="2.60417in" version="1.1" style="shape-rendering:geometricPrecision; text-rendering:geometricPrecision; image-rendering:optimizeQuality; fill-rule:evenodd; clip-rule:evenodd"
viewBox="0 0 2604.17 2604.17"
 xmlns:xlink="http://www.w3.org/1999/xlink"
 xmlns:xodm="http://www.corel.com/coreldraw/odm/2003">
 <defs>
  <style type="text/css">
   <![CDATA[
    .fil0 {fill:black}
   ]]>
  </style>
 </defs>
 <g id="Layer_x0020_1">
  <metadata id="CorelCorpID_0Corel-Layer"/>
  <g id="_1945275142736">
   <path class="fil0" d="M1489.48 1257.69l-459.87 0c-48.49,0 -78.15,-12.61 -105.91,-34.4 -57.23,-44.91 -66.2,-143 -2.32,-202.44 60.26,-56.06 129.37,-28.11 138.63,-29.9 28.42,-5.52 -4.27,-55.5 44.28,-130.15 80.12,-123.19 276.91,-105.56 330.15,34.92 12.09,31.91 12.17,42.56 12.17,85.26 31.35,20.99 17.94,3.9 54.56,3.9 189.91,0 196.67,272.81 -11.69,272.81zm190.97 -144.59l0 20.02c-2.47,45.17 -21.6,87.6 -53.89,113.56 -28.97,23.28 -66.47,46.09 -117.59,46.09l-494.95 0c-85.65,0 -152.15,-57.31 -171.48,-140.3 -48.31,0 -83.5,-3.51 -111.51,-24.89 -41.71,-31.85 -48.18,-60.53 -48.28,-106.52l0 -1.23c0.09,-54.95 54.65,-108.98 132.5,-108.98 1.41,-63.45 53.39,-112.46 103.59,-130.24 91.56,-32.42 137.55,23.3 169.21,44.5 4.22,-6.3 7.78,-11.06 13.95,-17.23 51.67,-51.69 101.75,-64.61 173.12,-64.61 103.38,0 206.56,96.52 206.56,206.55 60.07,0 103.58,4.74 147.23,47.63 32.97,32.39 49.28,74.33 51.53,115.66zm-643.05 -163.29c-41.3,0 -60.74,-1.61 -100.13,16.79 -54.77,25.59 -97.2,86.33 -98.63,150.79l-42.87 0c-42.85,0 -81.84,-42.89 -81.84,-85.74 0,-44.31 38.19,-85.74 81.84,-85.74 50.83,0 46.17,15.26 52.86,-32.87 17.64,-126.8 166.92,-134.02 216.05,-60.66 -3.4,14.59 -12.31,28.17 -17.75,44.6 -4.57,13.8 -9.53,36.8 -9.53,52.83z"/>
   <path class="fil0" d="M1107.55 1386.3c0,8.93 1.32,4.53 3.9,15.59 17.5,4.08 27.47,11.12 37.62,-13.04 30.43,-72.43 -41.52,-67.44 -41.52,-2.55z"/>
   <path class="fil0" d="M955.56 1479.83c0,30.46 50.66,25.01 50.66,-31.18 0,-16.76 -28.3,-32.98 -41.56,-2.59 -2.98,6.83 -9.1,26.52 -9.1,33.76z"/>
   <path class="fil0" d="M1403.74 1569.47c0,10.93 8.07,16.85 15.59,23.38 15.49,-3.61 19.41,-2.14 26.01,-16.85 13.72,-30.56 8.31,-35.9 5.17,-49.4 -17.5,-4.08 -27.47,-11.12 -37.62,13.04 -1.84,4.39 -9.15,27.32 -9.15,29.83z"/>
   <path class="fil0" d="M1197.19 1475.94c0,10.53 1.86,10.75 3.9,19.49 14.23,3.41 28.17,15.29 42.85,-31.65 14.65,-46.85 -46.74,-48.26 -46.74,12.16z"/>
   <path class="fil0" d="M1466.1 1390.2c0,18.24 50.67,32.51 50.67,-35.08 0,-12.69 -11.06,-15.03 -19.49,-19.48 -19.78,10.47 -31.18,29.76 -31.18,54.56z"/>
   <path class="fil0" d="M1045.19 1573.37c0,12.7 11.06,15.03 19.49,19.48 19.78,-10.46 31.18,-29.76 31.18,-54.56 0,-18.25 -50.67,-32.51 -50.67,35.07z"/>
   <path class="fil0" d="M1337.49 1499.32c20.93,0 46.26,-70.15 7.8,-70.15 -24.67,0 -47.13,70.15 -7.8,70.15z"/>
   <path class="fil0" d="M1251.75 1666.9c0,18.25 50.67,32.52 50.67,-35.07 0,-26.66 -50.67,-23.09 -50.67,35.07z"/>
   <path class="fil0" d="M1434.92 1475.94c0,36.69 50.66,28.8 50.66,-27.28 0,-16.21 -27.43,-32.65 -39.71,-4.64 -0.63,1.44 -10.95,30.94 -10.95,31.92z"/>
   <path class="fil0" d="M1228.37 1386.3c0,18.96 28.75,37.57 43.61,-7.17 21.6,-65.01 -43.61,-54.22 -43.61,7.17z"/>
   <path class="fil0" d="M1076.37 1479.83c0,8.11 24.91,48.28 45.68,-13.1 18.27,-53.98 -45.68,-50.39 -45.68,13.1z"/>
   <path class="fil0" d="M1310.21 1592.85c14.62,-12.7 45.96,-70.15 0,-70.15 -14.96,0 -20.43,24.58 -24.33,38.55 -6.29,22.56 2.66,26.55 24.33,31.6z"/>
   <path class="fil0" d="M1166.01 1569.47c0,16.96 6.13,16.32 19.49,23.38 20.35,-10.76 17.02,-9.35 25.17,-33.61 14.54,-43.31 -24.31,-47.53 -37.2,-21.28 -3.9,7.95 -7.46,18.9 -7.46,31.52z"/>
   <path class="fil0" d="M924.38 1573.37c0,12.7 11.06,15.03 19.49,19.48 27.31,-14.45 33.85,-38.04 27.28,-66.25 -8.74,-2.04 -8.96,-3.9 -19.48,-3.9 -15.82,0 -27.28,35.85 -27.28,50.67z"/>
   <path class="fil0" d="M1150.42 1682.49c24.87,0 31.18,-24.35 31.18,-50.66 0,-16.21 -14.44,-15.59 -23.39,-15.59 -19.52,0 -40.13,66.25 -7.79,66.25z"/>
   <path class="fil0" d="M986.74 1390.2c0,4.86 25.72,34.14 41.5,-1.37 12.97,-29.17 16.37,-46.07 -14.22,-53.19 -18.32,12.27 -27.28,38.76 -27.28,54.56z"/>
   <path class="fil0" d="M1364.77 1405.79c24.76,0 31.18,-29.3 31.18,-50.67 0,-11 -8.94,-15.04 -15.59,-19.48 -34.36,8 -44.85,70.15 -15.59,70.15z"/>
   <path class="fil0" d="M893.2 1663.01c0,22.04 29.83,30.39 41.52,2.55 30.63,-72.91 -41.52,-59.79 -41.52,-2.55z"/>
   <path class="fil0" d="M1014.02 1666.9c0,15.11 29.8,30.11 41.65,-5.11 4.07,-12.09 7.97,-21.35 9.01,-33.85 -13.82,-9.26 -6.13,-11.69 -27.28,-11.69 -14.69,0 -23.39,35.27 -23.39,50.66z"/>
   <path class="fil0" d="M1372.56 1659.11c0,29.97 30.74,32.11 41.52,6.44 24.98,-59.44 -19.89,-60.77 -32.35,-32.35 -2.16,4.94 -9.17,23.3 -9.17,25.91z"/>
  </g>
 </g>
</svg>
