<?xml version="1.0" encoding="UTF-8"?>
<!DOCTYPE svg PUBLIC "-//W3C//DTD SVG 1.1//EN" "http://www.w3.org/Graphics/SVG/1.1/DTD/svg11.dtd">
<!-- Creator: CorelDRAW (Evaluation Version) -->
<svg xmlns="http://www.w3.org/2000/svg" xml:space="preserve" width="2.60417in" height="2.60417in" version="1.1" style="shape-rendering:geometricPrecision; text-rendering:geometricPrecision; image-rendering:optimizeQuality; fill-rule:evenodd; clip-rule:evenodd"
viewBox="0 0 2604.17 2604.17"
 xmlns:xlink="http://www.w3.org/1999/xlink"
 xmlns:xodm="http://www.corel.com/coreldraw/odm/2003">
 <defs>
  <style type="text/css">
   <![CDATA[
    .fil0 {fill:black}
   ]]>
  </style>
 </defs>
 <g id="Layer_x0020_1">
  <metadata id="CorelCorpID_0Corel-Layer"/>
  <g id="_1945317207072">
   <path class="fil0" d="M985.64 1337.2l49.87 4.28c24.76,-30.14 -1.19,-35.9 21.46,-89.9 73.47,-175.15 320.79,-113.95 320.97,53.59 0.02,22.87 1.84,22.25 10.77,35.59 22.63,0 29.78,-3.57 53.51,-3.57 77.56,0 145.47,89.77 105.94,173.72 -23.04,48.92 -67.54,72.41 -127.35,72.41l-417.33 0c-78.89,0 -129.22,-43.93 -137.86,-115.64 -8.63,-71.55 65.81,-135.93 120.03,-130.49zm-156.95 132.87l0 -22.91c2.74,-37.81 19.28,-76.31 54.33,-109.13 28.15,-26.36 70,-40.07 124.02,-40.07 4.51,-54.21 31.43,-101.11 61.47,-131.15 77.28,-77.28 142.65,-54.33 198.92,-54.33 136.38,-203.66 437.28,-24.82 337.76,187.95 -16.17,34.57 -31.69,43.21 -41.7,58.17 6.32,11.95 2.67,10.07 14.27,17.84 10.29,-38.52 50.53,9.52 54.4,13.37 9.97,9.92 24.07,18.83 24.07,36.57 0,8.31 -9.52,17.83 -17.83,17.83 -19.63,0 -34.29,-28.76 -49.94,-39.24 14.66,62.91 11.38,99.13 -20.62,147.02 -20.71,31 -68.46,66.99 -118.49,66.99l-474.41 0c-76.99,0 -140.55,-69.96 -146.25,-148.93zm477.98 -343.31c30.74,-45.91 78.13,-60.64 135.55,-60.64 69.06,0 139.11,70.06 139.11,139.11 0,49.24 -11.54,99.13 -49.94,124.84 -15.16,-10.15 -21.57,-15.38 -41.74,-22.46 -27.48,-9.65 -43.78,-9.65 -72.4,-9.65 0,-36.95 -20.45,-79.88 -36.61,-102.5 -33.74,-47.2 -63.94,-55.04 -73.96,-68.72z"/>
   <path class="fil0" d="M1206.8 994.78c-6.26,26.15 -6.74,23.62 20.5,50.83 5.02,5.01 27.67,27.64 33,27.64 62.26,0 -12.51,-82.04 -35.67,-82.04 -5.62,0 -13.52,1.89 -17.83,3.57z"/>
   <path class="fil0" d="M1574.19 1051.85c0,11.54 9.87,21.4 21.4,21.4 13.69,0 60.64,-46.48 60.64,-60.64 0,-9.63 -1.7,-9.83 -3.57,-17.83 -25.94,-6.21 -23.62,-6.85 -50.83,20.5 -8.44,8.48 -27.64,22.91 -27.64,36.57z"/>
   <path class="fil0" d="M1649.1 1233.76c25.94,6.04 63.23,6.04 89.17,0 10.18,-43.7 2.55,-35.67 -78.47,-35.67 -13.08,0 -21.07,14.05 -10.7,35.67z"/>
   <path class="fil0" d="M1413.68 909.17c-6.3,27.05 -3.57,46.18 -3.57,78.48 0,19.9 39.24,19.9 39.24,0 0,-32.3 2.73,-51.43 -3.57,-78.48 -9.5,-2.27 -14.06,-7 -32.1,0z"/>
  </g>
 </g>
</svg>
